<svg width="192" height="192" viewBox="0 0 192 192" xmlns="http://www.w3.org/2000/svg"><div xmlns="" id="saka-gui-root"><div><div><style/></div></div></div><title>101_round</title><g id="Page-1" fill="none" fill-rule="evenodd"><g id="101_round" fill="#FFF"><path d="M79.377 95.705c0 9.002 7.325 16.326 16.328 16.326s16.328-7.324 16.328-16.326c0-9.004-7.325-16.328-16.328-16.328s-16.328 7.324-16.328 16.328z" id="Shape"/><path d="M162.692 133.625c-2.668 0-5.309-.514-7.84-1.563-8.311-3.443-13.681-12.1-13.681-22.055V94.111a32.466 32.466 0 0 1-12.899 4.182c-1.325 16.813-15.42 30.09-32.567 30.09a32.522 32.522 0 0 1-19.583-6.533l-3.271 3.27c-5.571 5.572-12.106 8.506-18.483 8.506-2.669 0-5.309-.514-7.84-1.563-8.312-3.443-13.683-12.1-13.683-22.055V94.111a32.485 32.485 0 0 1-16.326 4.379V82.139c9.002 0 16.326-7.326 16.326-16.328h16.352v44.197c0 3.318 1.408 6.045 3.588 6.947 2.29.949 5.394-.287 8.504-3.398l4.569-4.568a32.497 32.497 0 0 1-2.833-13.283c0-18.02 14.66-32.68 32.68-32.68 13.169 0 24.536 7.834 29.706 19.084 8.738-.301 15.761-7.486 15.761-16.299h16.352v44.197c0 3.318 1.408 6.045 3.587 6.947 2.295.949 5.395-.287 8.505-3.398l21.711-21.709C189.301 40.779 147.268 0 95.705 0 42.85 0 0 42.848 0 95.705c0 52.855 42.85 95.703 95.705 95.703 45.413 0 83.439-31.631 93.248-74.063l-7.775 7.773c-5.573 5.573-12.108 8.507-18.486 8.507z"/></g></g></svg>